<svg width="116" height="94" viewBox="0 0 116 94" fill="none" xmlns="http://www.w3.org/2000/svg">
<path d="M9.53674e-07 93.0909V0H33.1818C40.4242 0 46.4242 1.31818 51.1818 3.95454C55.9394 6.59091 59.5 10.197 61.8636 14.7727C64.2273 19.3182 65.4091 24.4394 65.4091 30.1364C65.4091 35.8636 64.2121 41.0152 61.8182 45.5909C59.4545 50.1364 55.8788 53.7424 51.0909 56.4091C46.3333 59.0455 40.3485 60.3636 33.1364 60.3636H10.3182V48.4545H31.8636C36.4394 48.4545 40.1515 47.6667 43 46.0909C45.8485 44.4849 47.9394 42.303 49.2727 39.5455C50.6061 36.7879 51.2727 33.6515 51.2727 30.1364C51.2727 26.6212 50.6061 23.5 49.2727 20.7727C47.9394 18.0455 45.8333 15.9091 42.9545 14.3636C40.1061 12.8182 36.3485 12.0455 31.6818 12.0455H14.0455V93.0909H9.53674e-07ZM115.92 0V93.0909H101.83V14.0909H101.284L79.0114 28.6364V15.1818L102.239 0H115.92Z" fill="#FFB500"/>
</svg>
